<svg data="logoboxwidth:352,logoboxheight:256" style="background:#ffebc4;" xmlns="http://www.w3.org/2000/svg" xmlns:xlink="http://www.w3.org/1999/xlink" width="400" height="400" viewBox="0 0 400 400">
<g data-name="watermark" class="watermark-logodesign" stroke="#ffffff" transform="translate(10, 320) scale(1.5) rotate(-45)" style="opacity:0.040000010281801224;"><path fill="#000000" d="M22.92,19.2q3.04,1.68,4.8,4.7t1.76,6.78t-1.76,6.78t-4.8,4.7t-6.68,1.68t-6.7-1.68t-4.84-4.7t-1.78-6.78t1.78-6.78t4.84-4.7t6.7-1.68t6.68,1.68z M11.14,21.74q-2.26,1.3-3.54,3.62t-1.28,5.32t1.28,5.32t3.54,3.6t5.1,1.28t5.08-1.28t3.52-3.6t1.28-5.32t-1.28-5.32t-3.54-3.62t-5.06-1.3q-2.84,0-5.1,1.3z M21.4,24.76l-1.8,2.32q-0.72-0.56-1.4-0.78t-1.48-0.22q-1.44,0-2.3,1.1t-0.86,3.46q0,2.32,0.82,3.44t2.26,1.12q0.96,0,1.74-0.3t1.54-0.9l1.64,2.44q-2.24,2.04-5.2,2.04q-3.2,0-5.08-2.04t-1.88-5.8q0-2.4,0.9-4.16t2.48-2.7t3.54-0.94q2.92,0,5.08,1.92z M41.2,20.32l0,22.96l10.96,0l-0.64,4.72l-16.2,0l0-27.68l5.88,0z M71.92,29.14q2.68,2.98,2.68,8.26q0,3.36-1.22,5.9t-3.52,3.94t-5.42,1.4q-4.76,0-7.46-2.98t-2.7-8.26q0-3.36,1.22-5.9t3.52-3.94t5.46-1.4q4.76,0,7.44,2.98z M61.26,32.1q-1.06,1.7-1.06,5.3t1.06,5.3t3.18,1.7t3.18-1.7t1.06-5.3t-1.04-5.3t-3.16-1.7q-2.16,0-3.22,1.7z M97.88,27.96q-2.08,0.8-6.12,0.8q2,0.88,2.96,2.18t0.96,3.26q0,2.04-1.06,3.66t-3.04,2.54t-4.62,0.92q-1.4,0-2.48-0.28q-0.8,0.52-0.8,1.4q0,0.64,0.5,1.02t1.94,0.38l3.24,0q2.36,0,4.14,0.78t2.76,2.16t0.98,3.14q0,3.24-2.78,5.06t-8.02,1.82q-3.76,0-5.94-0.78t-3.06-2.26t-0.88-3.72l5.08,0q0,1.04,0.4,1.66t1.46,0.92t3.06,0.3q2.76,0,3.86-0.68t1.1-1.92q0-1.12-0.84-1.72t-2.48-0.6l-3.12,0q-3.16,0-4.72-1.18t-1.56-2.98q0-1.12,0.66-2.18t1.82-1.78q-1.96-1.08-2.86-2.54t-0.9-3.5q0-2.32,1.14-4.06t3.2-2.68t4.7-0.94q3.28,0.08,5.4-0.56t4.52-2z M84.14,30.98q-0.94,1.02-0.94,2.78q0,1.8,0.94,2.84t2.58,1.04q1.72,0,2.6-1t0.88-2.96q0-3.72-3.52-3.72q-1.6,0-2.54,1.02z M117.04,29.14q2.68,2.98,2.68,8.26q0,3.36-1.22,5.9t-3.52,3.94t-5.42,1.4q-4.76,0-7.46-2.98t-2.7-8.26q0-3.36,1.22-5.9t3.52-3.94t5.46-1.4q4.76,0,7.44,2.98z M106.38,32.1q-1.06,1.7-1.06,5.3t1.06,5.3t3.18,1.7t3.18-1.7t1.06-5.3t-1.04-5.3t-3.16-1.7q-2.16,0-3.22,1.7z M141.78,23.26q3.9,2.94,3.9,10.78q0,7.68-3.82,10.82t-9.78,3.14l-7.92,0l0-27.68l7.24,0q6.48,0,10.38,2.94z M130.04,24.64l0,19.04l2.4,0q3.4,0,5.26-2.1t1.86-7.54q0-3.76-0.94-5.84t-2.5-2.82t-3.8-0.74l-2.28,0z M167.84,39.12l-13.24,0q0.28,2.88,1.56,4.08t3.48,1.2q1.36,0,2.56-0.44t2.6-1.4l2.36,3.2q-3.56,2.88-8.04,2.88q-5,0-7.68-3t-2.68-8.12q0-3.24,1.14-5.82t3.32-4.06t5.18-1.48q4.52,0,7.04,2.84t2.52,7.92q0,0.4-0.12,2.2z M162.32,35.32q0-5.28-3.8-5.28q-1.76,0-2.74,1.3t-1.18,4.22l7.72,0l0-0.24z M186.8,28.72l-2.16,3.24q-2.68-1.68-5.28-1.68q-1.4,0-2.16,0.52t-0.76,1.4q0,0.64,0.34,1.08t1.28,0.84t2.82,0.96q3.36,0.92,5,2.46t1.64,4.22q0,2.12-1.22,3.68t-3.3,2.38t-4.64,0.82q-2.68,0-4.88-0.82t-3.76-2.26l2.8-3.12q2.68,2.08,5.68,2.08q1.6,0,2.54-0.62t0.94-1.7q0-0.84-0.36-1.32t-1.32-0.9t-3-0.98q-3.2-0.88-4.74-2.5t-1.54-4.02q0-1.8,1.04-3.24t2.94-2.26t4.42-0.82q4.48,0,7.68,2.56z M196.92,26.8l0,21.2l-5.68,0l0-21.2l5.68,0z M196.54,16.82q0.98,0.94,0.98,2.38t-0.98,2.38t-2.5,0.94t-2.48-0.94t-0.96-2.38t0.96-2.38t2.48-0.94t2.5,0.94z M221.48,27.96q-2.08,0.8-6.12,0.8q2,0.88,2.96,2.18t0.96,3.26q0,2.04-1.06,3.66t-3.04,2.54t-4.62,0.92q-1.4,0-2.48-0.28q-0.8,0.52-0.8,1.4q0,0.64,0.5,1.02t1.94,0.38l3.24,0q2.36,0,4.14,0.78t2.76,2.16t0.98,3.14q0,3.24-2.78,5.06t-8.02,1.82q-3.76,0-5.94-0.78t-3.06-2.26t-0.88-3.72l5.08,0q0,1.04,0.4,1.66t1.46,0.92t3.06,0.3q2.76,0,3.86-0.68t1.1-1.92q0-1.12-0.84-1.72t-2.48-0.6l-3.12,0q-3.16,0-4.72-1.18t-1.56-2.98q0-1.12,0.66-2.18t1.82-1.78q-1.96-1.08-2.86-2.54t-0.9-3.5q0-2.32,1.14-4.06t3.2-2.68t4.7-0.94q3.28,0.08,5.4-0.56t4.52-2z M207.74,30.98q-0.94,1.02-0.94,2.78q0,1.8,0.94,2.84t2.58,1.04q1.72,0,2.6-1t0.88-2.96q0-3.72-3.52-3.72q-1.6,0-2.54,1.02z M240.48,27.86q1.56,1.7,1.56,4.7l0,15.44l-5.68,0l0-14.48q0-1.72-0.58-2.42t-1.74-0.7q-1.2,0-2.18,0.74t-1.9,2.22l0,14.64l-5.68,0l0-21.2l4.92,0l0.44,2.68q1.32-1.64,2.9-2.48t3.58-0.84q2.8,0,4.36,1.7z M251.84,42.8q1,1,1,2.4t-1,2.42t-2.44,1.02q-1.4,0-2.4-1.02t-1-2.42t1-2.4t2.4-1q1.44,0,2.44,1z M271.8,48l-1.56-6.2l-8.68,0l-1.56,6.2l-6.12,0l8.52-27.68l7.16,0l8.48,27.68l-6.24,0z M262.68,37.44l6.44,0l-3.24-12.76z M286.48,20.32l0,27.68l-5.88,0l0-27.68l5.88,0z"></path></g><g data-name="icon" fill="#f58a2f" data="id:530971,original_width:66.528,original_height:96.768,imagick_width_starter:44,imagick_fullwidth_starter:44,imagick_height_starter:64,imagick_fullheight_starter:64,imagick_heightgap_starter:0,imagick_widthgap_starter:0,scale_icon:1.512" width="44" height="64" transform="translate(166.736,111.5672195122) scale(1.512)">
<title>ticket</title><desc>Created with Sketch.</desc><g stroke="none" stroke-width="1"  fill-rule="evenodd"><g transform="translate(-368.000000, -238.000000)" ><g transform="translate(368.000000, 238.000000)" ><path d="M4,3.99630737 C4,3.99722729 11.5908022,3.97498213 11.5908022,3.97498213 C13.699333,7.64646765 17.634159,10 22,10 C25.9645777,10 29.5737284,8.05921147 31.7826152,4.953114 C32.2565044,4.28673953 32.40625,4 32.40625,4 L40.0027084,4 L40,60.0036926 C40,60.0027727 32.4077652,60.0225241 32.4077652,60.0225241 C30.298885,56.3524667 26.3648524,54 22,54 C18.1207389,54 14.581772,55.8581569 12.3619236,58.8479857 C11.8263877,59.5692784 11.6000061,60 11.6000061,60 L3.99729162,60 C3.99904361,60 4,3.99630737 4,3.99630737 Z M12.8320874,64 C13.6270374,64 14.3465177,63.5291979 14.6647931,62.8007432 C15.9284335,59.9085789 18.7890002,58 22,58 C25.2109998,58 28.0715665,59.9085789 29.3352069,62.8007432 C29.6534823,63.5291979 30.3729626,64 31.1679126,64 L40.0027084,64 C42.212299,64 44,62.2115235 44,60.0036926 L44,3.99630737 C44,1.78975864 42.2099493,2.84217094e-14 40.0027084,2.84217094e-14 L31.1679126,2.93098879e-14 C30.3729626,2.93098879e-14 29.6534823,0.470802101 29.3352069,1.1992568 C28.0715665,4.09142112 25.2109998,6 22,6 C18.7890002,6 15.9284335,4.09142112 14.6647931,1.1992568 C14.3465177,0.470802101 13.6270374,2.84217094e-14 12.8320874,2.84217094e-14 L3.99729162,2.84217094e-14 C1.78770104,2.84217094e-14 0,1.78847655 0,3.99630737 L0,60.0036926 C0,62.2102414 1.79005071,64 3.99729162,64 L12.8320874,64 Z"/><path d="M13.0055203,24 L30.9944797,24 C32.1019756,24 33,24.8969163 33,25.99923 L33,38.00077 C33,39.1068497 32.1064086,40 30.9944797,40 L13.0055203,40 C11.8980244,40 11,39.1030837 11,38.00077 L11,25.99923 C11,24.8931503 11.8935914,24 13.0055203,24 Z M7,38.00077 C7,41.313329 9.68999019,44 13.0055203,44 L30.9944797,44 C34.3151056,44 37,41.3164309 37,38.00077 L37,25.99923 C37,22.686671 34.3100098,20 30.9944797,20 L13.0055203,20 C9.6848944,20 7,22.6835691 7,25.99923 L7,38.00077 Z"/></g></g></g>
</g><g data-name="business_name" fill="#ec4b24" data="id:245,original_width:352,original_height:60.09756097561,imagick_width_starter:164,imagick_height_starter:28,imagick_fullwidth_starter:165,imagick_fullheight_starter:48,imagick_heightgap_starter:20,imagick_widthgap_starter:1,scale_business_name:2.1463414634146" transform="translate(21.853658536585,185.4083902439) scale(2.1463414634146)" width="352" height="60.09756097561"><path d="M1.2,48l0-4.48l0.84-0.56l0-17.92l-0.84-0.56l0-4.48l14.56,0l0,5.88l-4.48,0l-0.56-0.84l-3.64,0l0,6.44l6.44,0l0,5.04l-6.44,0l0,6.44l3.64,0l0.56-0.84l4.48,0l0,5.88l-14.56,0z M22.84,48l-4.64-22.96l-0.84-0.56l0-4.48l4.96,0l4,19.76l4-19.76l4.96,0l0,4.48l-0.84,0.56l-4.64,22.96l-6.96,0z M36.88,48l0-4.48l0.84-0.56l0-17.92l-0.84-0.56l0-4.48l14.56,0l0,5.88l-4.48,0l-0.56-0.84l-3.64,0l0,6.44l6.44,0l0,5.04l-6.44,0l0,6.44l3.64,0l0.56-0.84l4.48,0l0,5.88l-14.56,0z M53.84,48l0-4.48l0.84-0.56l0-17.92l-0.84-0.56l0-4.48l6.2,0l5.84,14.96l0-9.92l-0.84-0.56l0-4.48l6.72,0l0,4.48l-0.84,0.56l0,22.96l-5.36,0l-5.84-14.96l0,9.92l0.84,0.56l0,4.48l-6.72,0z M79.2,48l0-4.48l0.84-0.56l0-17.92l-0.84,0l-0.56,0.84l-4.48,0l0-5.88l16.8,0l0,5.88l-4.48,0l-0.56-0.84l-0.84,0l0,17.92l0.84,0.56l0,4.48l-6.72,0z M93.36,48l0-4.48l0.84-0.56l0-17.92l-0.84-0.56l0-4.48l12.8,0l3.72,3.72l0,10.76l-3.72,3.72l-6.92,0l0,4.76l0.84,0.56l0,4.48l-6.72,0z M99.24,33.16l4.84,0l0.76-0.76l0-6.6l-0.76-0.76l-4.84,0l0,8.12z M111.48,48l0-4.48l0.84-0.56l3.64-17.92l-0.84-0.56l0-4.48l10.64,0l0,4.48l-0.84,0.56l3.64,17.92l0.84,0.56l0,4.48l-4.96,0l-1.24-6.16l-5.52,0l-1.24,6.16l-4.96,0z M118.72,36.8l3.44,0l-1.72-8.56z M134.72,48l-3.72-3.72l0-5.24l5.04,0l0,3.16l0.76,0.76l4.08,0l0.76-0.76l0-4.92l-0.76-0.76l-6.16,0l-3.72-3.72l0-9.08l3.72-3.72l8.24,0l3.72,3.72l0,5.24l-5.04,0l0-3.16l-0.76-0.76l-4.08,0l-0.76,0.76l0,4.92l0.76,0.76l6.16,0l3.72,3.72l0,9.08l-3.72,3.72l-8.24,0z M152.8,48l-3.72-3.72l0-5.24l5.04,0l0,3.16l0.76,0.76l4.08,0l0.76-0.76l0-4.92l-0.76-0.76l-6.16,0l-3.72-3.72l0-9.08l3.72-3.72l8.24,0l3.72,3.72l0,5.24l-5.04,0l0-3.16l-0.76-0.76l-4.08,0l-0.76,0.76l0,4.92l0.76,0.76l6.16,0l3.72,3.72l0,9.08l-3.72,3.72l-8.24,0z"/></g></svg>